<svg width="210" height="93" viewBox="0 0 210 93" fill="none" xmlns="http://www.w3.org/2000/svg">
<path d="M105.115 12.1642C105.115 9.13291 102.475 8.44481 100.405 10.6827C93.2365 18.4376 71.8565 41.8079 71.8565 41.8079C70.32 43.4817 71.5241 46.1596 73.807 46.1596H143.315C145.905 46.1596 148.014 47.9587 148.014 50.5127C148.014 53.0729 145.899 55.421 143.315 55.421H71.5367C62.4993 55.421 57.7391 44.3743 63.7912 37.7414C63.7912 37.7414 86.8833 12.3812 94.61 3.96292C100.944 -2.93038 114.867 -1.06448 114.867 11.4017V87.9596C114.867 90.5198 112.766 92.5903 110.182 92.5903H109.235C106.633 92.5903 104.532 90.495 104.551 87.9224L105.115 12.158V12.1642Z" fill="url(#paint0_linear_175_66)"/>
<path d="M28.8683 15.2248H25.6259C11.4708 15.2248 0 26.569 0 40.554V77.6055H10.4799V40.1139C10.4799 32.0923 17.0588 25.5834 25.1743 25.5834H29.3136C37.4291 25.5834 44.008 32.0862 44.008 40.1077V77.6055H54.5004V40.554C54.5004 26.5628 43.0234 15.2248 28.8746 15.2248H28.8683Z" fill="#A6C8FF"/>
<path d="M183.931 16.446H180.688C166.533 16.446 155.062 27.784 155.062 41.7751V78.8267H165.542V41.335C165.542 33.3135 172.121 26.8045 180.237 26.8045H184.376C192.491 26.8045 199.07 33.3073 199.07 41.3288V78.8267H209.563V41.7751C209.563 27.784 198.086 16.446 183.937 16.446H183.931Z" fill="#EFA4FF"/>
<defs>
<linearGradient id="paint0_linear_175_66" x1="81.7218" y1="69.6663" x2="129.86" y2="20.958" gradientUnits="userSpaceOnUse">
<stop stop-color="#A6C8FF"/>
<stop offset="1" stop-color="#EFA4FF"/>
</linearGradient>
</defs>
</svg>
