<svg width="214" height="51" viewBox="0 0 214 51" fill="none" xmlns="http://www.w3.org/2000/svg">
<g clip-path="url(#clip0_122_377)">
<path d="M107.324 10.0475C107.324 8.75725 106.201 8.46438 105.32 9.41688C102.268 12.7177 93.1684 22.6649 93.1684 22.6649C92.5144 23.3773 93.0269 24.5171 93.9986 24.5171H125.402C126.504 24.5171 127.396 25.4011 127.396 26.4881C127.396 27.5778 126.502 28.4591 125.402 28.4591H93.0323C89.1856 28.4591 87.1595 23.7573 89.7355 20.934C89.7355 20.934 99.5643 10.1398 102.853 6.55673C105.549 3.62269 111.475 4.41688 111.475 9.72295V42.3087C111.475 43.3984 110.581 44.2797 109.481 44.2797H109.078C107.97 44.2797 107.076 43.3879 107.084 42.2929L107.324 10.0449V10.0475Z" fill="url(#paint0_linear_122_377)"/>
<path d="M12.2874 12.4802H10.9073C4.88238 12.4802 0 17.3087 0 23.2612V39.0317H4.46061V23.0739C4.46061 19.6596 7.26084 16.8892 10.7151 16.8892H12.4769C15.9311 16.8892 18.7314 19.657 18.7314 23.0713V39.0317H23.1973V23.2612C23.1973 17.3061 18.3123 12.4802 12.29 12.4802H12.2874Z" fill="#5797FF"/>
<path d="M55.9993 25.6913C55.9993 17 62.0375 12.0422 68.9433 12.0422C75.8491 12.0422 81.8927 17 81.8927 25.6913C81.8927 34.3826 75.8491 39.2348 68.9433 39.2348C62.0375 39.2348 55.9993 34.2744 55.9993 25.6913ZM77.3066 25.6913C77.3066 19.7203 73.9645 15.7203 68.9433 15.7203C63.9221 15.7203 60.5853 19.7177 60.5853 25.6913C60.5853 31.6649 63.9275 35.5541 68.9433 35.5541C73.9592 35.5541 77.3066 31.6069 77.3066 25.6913Z" fill="#5797FF"/>
<path d="M160.657 25.8997C160.657 17.4749 167.021 12.3562 174.036 12.3562C181.585 12.3562 186.009 17.2084 186.009 24.5119C186.009 25.5251 185.904 26.4855 185.792 27.1768H164.709V23.7652H181.97L181.954 23.5673C181.543 18.3879 178.55 15.8206 174.138 15.8206C169.285 15.8206 165.078 19.4485 165.078 25.8997C165.078 32.3509 169.501 36.029 175.328 36.029C178.454 36.029 180.937 35.0686 183.31 33.5752L184.93 36.4538C182.338 38.161 178.996 39.5462 174.789 39.5462C166.914 39.5462 160.654 34.533 160.654 25.8971L160.657 25.8997Z" fill="#C15CD6"/>
<path d="M27.2522 25.6385C27.2522 17.2137 33.6161 12.095 40.6314 12.095C48.1805 12.095 52.6037 16.9472 52.6037 24.2507C52.6037 25.2639 52.4996 26.2243 52.3875 26.9156H31.3044V23.504H48.5649L48.5489 23.3061C48.1378 18.1267 45.1454 15.5594 40.7328 15.5594C35.8798 15.5594 31.6728 19.1873 31.6728 25.6385C31.6728 32.0897 36.096 35.7678 41.9234 35.7678C45.0493 35.7678 47.5318 34.8074 49.9049 33.314L51.5253 36.1926C48.9333 37.8998 45.5911 39.285 41.3841 39.285C33.5093 39.285 27.2495 34.2718 27.2495 25.6359L27.2522 25.6385Z" fill="#5797FF"/>
<path d="M188.106 26.0053C188.106 17.314 194.145 12.3562 201.05 12.3562C207.956 12.3562 214 17.314 214 26.0053C214 34.6966 207.956 39.5488 201.05 39.5488C194.145 39.5488 188.106 34.5884 188.106 26.0053ZM209.414 26.0053C209.414 20.0343 206.072 16.0343 201.05 16.0343C196.029 16.0343 192.693 20.0317 192.693 26.0053C192.693 31.9789 196.035 35.8681 201.05 35.8681C206.066 35.8681 209.414 31.9208 209.414 26.0053Z" fill="#C15CD6"/>
<path d="M145.823 12.3562H144.443C138.418 12.3562 133.535 17.1821 133.535 23.1372V38.9077H137.996V22.9499C137.996 19.5356 140.796 16.7652 144.25 16.7652H146.012C149.467 16.7652 152.267 19.533 152.267 22.9472V38.9077H156.733V23.1372C156.733 17.1821 151.848 12.3562 145.825 12.3562H145.823Z" fill="#C15CD6"/>
<path d="M163.302 9.74143C162.92 9.74143 162.533 9.62533 162.202 9.38259C151.786 1.73879 136.845 1.6913 128.18 9.28233C127.42 9.95251 126.25 9.88127 125.575 9.12665C124.897 8.37204 124.969 7.219 125.733 6.54882C135.65 -2.14511 152.635 -2.18997 164.407 6.44855C165.224 7.05014 165.398 8.19262 164.789 9.00264C164.426 9.48549 163.868 9.73879 163.302 9.73879V9.74143Z" fill="#C15CD6"/>
<path d="M69.421 51C62.4912 51 55.3371 48.8522 49.4751 44.5514C48.6582 43.9525 48.4847 42.8074 49.0933 41.9973C49.702 41.1873 50.8578 41.0185 51.68 41.62C62.0988 49.2612 77.0342 49.3087 85.7019 41.7203C86.4653 41.0528 87.6345 41.124 88.3072 41.876C88.9853 42.6306 88.9132 43.7836 88.1497 44.4538C83.1712 48.8179 76.4069 51.0026 69.421 51.0026V51Z" fill="#5797FF"/>
</g>
<defs>
<linearGradient id="paint0_linear_122_377" x1="97.3674" y1="34.5224" x2="117.857" y2="13.7904" gradientUnits="userSpaceOnUse">
<stop stop-color="#5797FF"/>
<stop offset="0.68" stop-color="#A26DE1"/>
<stop offset="1" stop-color="#C15CD6"/>
</linearGradient>
<clipPath id="clip0_122_377">
<rect width="214" height="51" fill="white"/>
</clipPath>
</defs>
</svg>
